<?xml version="1.0" encoding="UTF-8"?>
<svg id="Layer_1" xmlns="http://www.w3.org/2000/svg" version="1.1" viewBox="590 270 740 540">
  <!-- Generator: Adobe Illustrator 29.3.0, SVG Export Plug-In . SVG Version: 2.1.0 Build 146)  -->
  <defs>
    <style>
      .st0 {
        fill: #c1e839;
      }
    </style>
  </defs>
  <polygon class="st0" points="721.74 671.84 687.8 671.84 666.06 697.71 652.61 717.79 651.37 717.79 651.37 627.33 620.73 627.33 620.73 780.51 651.37 780.51 651.37 749.88 665.03 734.56 689.45 780.51 725.89 780.51 685.52 713.45 721.74 671.84"/>
  <path class="st0" d="M788.4,673.81c-3.18,1.31-5.9,3.07-8.18,5.28-2.28,2.21-4.11,4.73-5.49,7.56-1.38,2.83-2.35,5.76-2.9,8.8h-1.03v-23.6h-30.64v108.67h30.64v-63.55c0-6.35,2.17-10.69,6.52-13.04,4.35-2.34,11-3.52,19.98-3.52h7.66v-28.57h-5.38c-4.28,0-8.01.66-11.18,1.97Z"/>
  <path class="st0" d="M905.66,686.12c-4.07-5.1-9.31-9.18-15.73-12.21-6.42-3.03-14.11-4.55-23.08-4.55-8.14,0-15.39,1.35-21.73,4.04-6.35,2.69-11.7,6.52-16.04,11.49-4.35,4.97-7.63,10.94-9.83,17.91-2.21,6.97-3.31,14.73-3.31,23.29s1.14,16.56,3.42,23.6c2.28,7.04,5.66,13.01,10.14,17.9,4.48,4.9,9.97,8.69,16.46,11.38,6.48,2.69,13.87,4.04,22.15,4.04,9.94,0,18.8-1.59,26.6-4.77,7.8-3.18,14.11-7.61,18.94-13.28l-15.32-19.1c-3.45,3.56-7.18,6.6-11.18,9.14-4,2.53-9.18,3.8-15.53,3.8-8.28,0-14.35-2.09-18.21-6.26-3.87-4.17-5.8-9.82-5.8-16.94v-1.64h69.76v-9.11c0-7.31-.93-14.32-2.8-21.01-1.86-6.69-4.83-12.59-8.9-17.7ZM885.69,715.93h-38.09v-1.66c0-6.76,1.76-12.18,5.28-16.25,3.52-4.07,8.38-6.11,14.59-6.11s10.8,2.04,13.77,6.11c2.96,4.07,4.45,9.42,4.45,16.04v1.86Z"/>
  <path class="st0" d="M1026.24,709.1c0-12.97-3.86-22.84-11.59-29.6-7.73-6.76-19.32-10.14-34.78-10.14-11.46,0-20.53,1.84-27.22,5.52-6.69,3.68-12.25,8.78-16.66,15.3l18.22,16.24c2.34-3.31,5.31-6.28,8.9-8.9,3.59-2.62,8.41-3.93,14.49-3.93,6.48,0,11.11,1.55,13.87,4.66,2.76,3.11,4.14,7.28,4.14,12.52v6.83h-17.18c-14.35,0-25.7,2.79-34.05,8.36-8.35,5.57-12.52,14.07-12.52,25.48,0,9.49,2.9,17.13,8.69,22.91,5.8,5.78,14.14,8.66,25.05,8.66,8.28,0,15.25-1.83,20.91-5.48,5.66-3.66,9.31-9,10.97-16.04h1.24c.96,5.8,3.28,10.42,6.93,13.87,3.66,3.45,8.24,5.18,13.77,5.18h16.97v-23.81h-10.14v-47.61ZM995.6,747.71c0,4.93-1.83,8.49-5.48,10.68-3.66,2.19-8.04,3.29-13.14,3.29-4.55,0-8.07-.92-10.56-2.77-2.48-1.85-3.73-4.76-3.73-8.73v-3.08c0-8.08,6-12.12,18.01-12.12h14.9v12.73Z"/>
  <path class="st0" d="M1092.06,642.45h-27.53v17.8c0,3.73-.76,6.59-2.28,8.59-1.52,2-4.35,3-8.49,3h-7.66v23.8h15.32v53.2c0,10.35,2.72,18.22,8.18,23.6,5.45,5.38,13.49,8.07,24.12,8.07h18.21v-23.81h-19.87v-61.06h21.53v-23.8h-21.53v-29.39Z"/>
  <path class="st0" d="M1150.23,625.47c-6.21,0-10.73,1.42-13.56,4.24-2.83,2.83-4.24,6.45-4.24,10.87v4.55c0,4.42,1.41,8.04,4.24,10.87,2.83,2.83,7.35,4.24,13.56,4.24s10.73-1.41,13.56-4.24,4.24-6.45,4.24-10.87v-4.55c0-4.41-1.42-8.04-4.24-10.87-2.83-2.83-7.35-4.24-13.56-4.24Z"/>
  <rect class="st0" x="1134.91" y="671.84" width="30.64" height="108.67"/>
  <polygon class="st0" points="1295.13 671.84 1261.18 671.84 1239.45 697.71 1225.99 717.79 1224.75 717.79 1224.75 627.33 1194.11 627.33 1194.11 780.51 1224.75 780.51 1224.75 749.88 1238.41 734.56 1262.84 780.51 1299.27 780.51 1258.9 713.45 1295.13 671.84"/>
  <path class="st0" d="M936.56,501.03c2.27,3.55,5.18,6.7,8.72,9.46,3.55,2.76,7.74,4.93,12.57,6.5,4.83,1.58,10.4,2.37,16.71,2.37,15.97,0,28.04-5.27,36.22-15.82,8.18-10.54,12.27-25.67,12.27-45.39v-97.58h-43.76v93.73c0,9.46-1.67,16.76-5.03,21.88-3.35,5.13-9.06,7.69-17.15,7.69-3.35,0-6.7-.49-10.05-1.48-3.35-.98-6.31-2.41-8.87-4.29-1.25-.91-2.38-1.93-3.39-3.05-.27-.3-.43-.55-.65-.82.7-4.99,1.1-10.32,1.1-16.09v-97.58h-43.76v93.73c0,9.46-1.67,16.76-5.03,21.88-3.35,5.13-9.06,7.69-17.15,7.69-3.35,0-6.7-.49-10.05-1.48-3.35-.98-6.31-2.41-8.87-4.29-1.25-.91-2.38-1.93-3.39-3.05-.49-.54-.86-1.04-1.18-1.5v-176.56h-43.77v178.6h-181.32v43.76h181.78c14.91-.03,25.82-3.68,32.8-10.96,4.2-4.36,7.12-9.92,8.8-16.64,1.27,3.21,2.77,6.32,4.65,9.26,2.27,3.55,5.18,6.7,8.72,9.46,3.55,2.76,7.74,4.93,12.57,6.5,4.83,1.58,10.4,2.37,16.71,2.37,15.97,0,28.04-5.27,36.22-15.82,3.06-3.94,5.54-8.53,7.46-13.75h.66c1.38,3.95,3.21,7.69,5.47,11.24Z"/>
  <path class="st0" d="M752.45,410.73h-54.12c-2.01,0-3.76-.42-5.24-1.27-1.48-.85-2.73-1.96-3.73-3.33-1.01-1.38-1.77-2.96-2.3-4.76-.53-1.8-.79-3.6-.79-5.4,0-4.34,1.37-7.41,4.13-9.21,2.75-1.8,6.67-2.7,11.75-2.7h50.31v-23.49h-52.38c-10.58,0-18.7,2.2-24.36,6.59-5.66,4.39-8.49,10.87-8.49,19.44,0,3.39.42,6.37,1.27,8.97.85,2.59,2.01,4.84,3.49,6.75,1.48,1.9,3.17,3.46,5.08,4.68,1.9,1.22,3.91,2.19,6.03,2.94v.79h-15.87v23.49h85.23v-23.49Z"/>
  <path class="st0" d="M986.73,549.53c-2.77,2.77-4.15,6.31-4.15,10.63v4.45c0,4.32,1.38,7.86,4.15,10.63,2.76,2.77,7.18,4.15,13.26,4.15s10.49-1.38,13.26-4.15c2.76-2.76,4.15-6.31,4.15-10.63v-4.45c0-4.32-1.38-7.86-4.15-10.63-2.77-2.76-7.19-4.15-13.26-4.15s-10.49,1.38-13.26,4.15Z"/>
  <path class="st0" d="M958.3,545.38c-6.07,0-10.49,1.38-13.26,4.15-2.77,2.77-4.15,6.31-4.15,10.63v4.45c0,4.32,1.38,7.86,4.15,10.63,2.76,2.77,7.18,4.15,13.26,4.15s10.49-1.38,13.26-4.15c2.76-2.76,4.15-6.31,4.15-10.63v-4.45c0-4.32-1.38-7.86-4.15-10.63-2.77-2.76-7.19-4.15-13.26-4.15Z"/>
  <path class="st0" d="M934.91,331.01c6.07,0,10.49-1.38,13.26-4.15,2.76-2.76,4.15-6.31,4.15-10.63v-4.45c0-4.32-1.38-7.86-4.15-10.63-2.77-2.76-7.19-4.15-13.26-4.15s-10.49,1.38-13.26,4.15c-2.77,2.77-4.15,6.31-4.15,10.63v4.45c0,4.32,1.38,7.86,4.15,10.63,2.76,2.77,7.18,4.15,13.26,4.15Z"/>
  <path class="st0" d="M893.22,331.01c6.07,0,10.49-1.38,13.26-4.15,2.76-2.76,4.15-6.31,4.15-10.63v-4.45c0-4.32-1.38-7.86-4.15-10.63-2.77-2.76-7.19-4.15-13.26-4.15s-10.49,1.38-13.26,4.15c-2.77,2.77-4.15,6.31-4.15,10.63v4.45c0,4.32,1.38,7.86,4.15,10.63,2.76,2.77,7.18,4.15,13.26,4.15Z"/>
  <path class="st0" d="M1157.34,341.95v78.06l47.61,25.72c7.29,3.95,12.12,7.2,14.49,9.76,2.37,2.56,3.55,5.62,3.55,9.17,0,3.95-1.29,6.65-3.84,8.13-2.57,1.48-7.2,2.22-13.9,2.22-12.73,0-56.35-.01-91.3-.02v-114.41h-43.76v184.8h-19.51v34h19.81c14.98,0,25.97-3.64,32.97-10.94,7-7.29,10.5-17.84,10.5-31.64v-17.44h79.48c21.09,0,36.22-4.92,45.39-14.78,9.17-9.86,13.75-25.23,13.75-46.13,0-6.7-.84-12.76-2.52-18.18-1.68-5.42-4.34-10.59-7.98-15.52-3.65-4.92-8.53-9.71-14.64-14.34-6.11-4.63-13.6-9.41-22.47-14.34l-32.82-18.33v-1.77l127.14-39.92v-39.03l-141.93,44.94Z"/>
</svg>